<mxfile host="app.diagrams.net" modified="2021-02-26T13:14:06.428Z" agent="5.0 (Windows NT 10.0; Win64; x64) AppleWebKit/537.36 (KHTML, like Gecko) Chrome/65.0.3325.146 Safari/537.36" etag="2V6Dr6iAzqkGOpKwNNPN" version="14.4.2" type="github">
  <diagram id="WQGF20Ll4uYhyf2EV0Y-" name="Page-1">
    <mxGraphModel dx="1038" dy="560" grid="1" gridSize="10" guides="1" tooltips="1" connect="1" arrows="1" fold="1" page="1" pageScale="1" pageWidth="827" pageHeight="1169" math="0" shadow="0">
      <root>
        <mxCell id="0" />
        <mxCell id="1" parent="0" />
        <mxCell id="JIIdOe5sOwGDD-qBgdaJ-1" value="&lt;font style=&quot;font-size: 20px&quot;&gt;服务消费者&lt;/font&gt;" style="ellipse;whiteSpace=wrap;html=1;" vertex="1" parent="1">
          <mxGeometry x="50" y="130" width="120" height="80" as="geometry" />
        </mxCell>
        <mxCell id="JIIdOe5sOwGDD-qBgdaJ-2" value="&lt;span style=&quot;font-size: 20px&quot;&gt;服务提供者&lt;/span&gt;" style="ellipse;whiteSpace=wrap;html=1;" vertex="1" parent="1">
          <mxGeometry x="400" y="130" width="120" height="80" as="geometry" />
        </mxCell>
        <mxCell id="JIIdOe5sOwGDD-qBgdaJ-3" value="" style="endArrow=classic;html=1;exitX=1.02;exitY=0.413;exitDx=0;exitDy=0;exitPerimeter=0;" edge="1" parent="1" source="JIIdOe5sOwGDD-qBgdaJ-1">
          <mxGeometry width="50" height="50" relative="1" as="geometry">
            <mxPoint x="340" y="220" as="sourcePoint" />
            <mxPoint x="400" y="161" as="targetPoint" />
          </mxGeometry>
        </mxCell>
        <mxCell id="JIIdOe5sOwGDD-qBgdaJ-4" value="" style="endArrow=classic;html=1;entryX=1;entryY=0.623;entryDx=0;entryDy=0;entryPerimeter=0;" edge="1" parent="1" target="JIIdOe5sOwGDD-qBgdaJ-1">
          <mxGeometry width="50" height="50" relative="1" as="geometry">
            <mxPoint x="400" y="180" as="sourcePoint" />
            <mxPoint x="250.03999999999996" y="179.84000000000003" as="targetPoint" />
          </mxGeometry>
        </mxCell>
        <mxCell id="JIIdOe5sOwGDD-qBgdaJ-6" value="远程调用技术" style="text;html=1;strokeColor=none;fillColor=none;align=center;verticalAlign=middle;whiteSpace=wrap;rounded=0;strokeWidth=5;fontSize=20;" vertex="1" parent="1">
          <mxGeometry x="210" y="130" width="150" height="20" as="geometry" />
        </mxCell>
      </root>
    </mxGraphModel>
  </diagram>
</mxfile>
